<svg xmlns="http://www.w3.org/2000/svg" height="800" width="1200" id="svg4370" version="1.1" viewBox="-77.25495 -33.3635 669.5429 200.181"><defs id="defs4364"><style id="style4372">.cls-1{fill:#8dc63f}</style></defs><g transform="translate(48.63 -269.339)" id="layer1"><g transform="translate(1 -1)" id="g4476"><path class="cls-1" d="M146.032 372.929c-9.79 0-16.14-5.313-20.224-11.237v10.115h-7.853v-68.649h-5.866v-5.927h13.727v32.385c4.289-6.35 10.522-11.75 20.224-11.75 12.674 0 25.226 10.017 25.226 27.477-.008 17.365-12.465 27.586-25.234 27.586zm-1.426-48.004c-9.805 0-19.103 8.168-19.103 20.418 0 12.356 9.298 20.527 19.103 20.527 10.219 0 18.59-7.557 18.59-20.426 0-12.555-8.58-20.519-18.59-20.519z" id="path4378" fill="#8dc63f" stroke-width=".265"/><path class="cls-1" d="M203.537 317.916c-14.587 0-25.268 12.224-25.268 27.517 0 16.404 11.814 27.517 26.279 27.517 9.985 0 16.404-3.969 21.696-9.89l-4.882-4.398c-4.27 4.498-9.361 7.446-16.61 7.446-9.261 0-17.418-6.427-18.55-17.833h41.775a20.667 20.667 0 00.103-2.427c.01-15.496-8.948-27.932-24.543-27.932zm-17.336 24.554c1.03-10.285 7.957-17.939 17.124-17.939 10.496 0 15.997 8.356 16.804 17.926z" id="path4380" fill="#8dc63f" stroke-width=".265"/><path class="cls-1" d="M260.766 317.916c-14.552 0-25.251 12.224-25.251 27.517 0 16.404 11.808 27.517 26.289 27.517 9.98 0 16.404-3.969 21.695-9.89l-4.905-4.398c-4.252 4.498-9.361 7.446-16.59 7.446-9.26 0-17.414-6.427-18.536-17.833h41.754a22.96 22.96 0 00.092-2.427c.003-15.496-8.945-27.932-24.548-27.932zm-17.298 24.554c1.013-10.285 7.937-17.926 17.108-17.926 10.488 0 15.991 8.356 16.809 17.926z" id="path4382" fill="#8dc63f" stroke-width=".265"/><path class="cls-1" id="polygon4384" transform="translate(-49.63 270.342) scale(.26458)" fill="#8dc63f" d="M1336.77 102.05h-29.6v.03h-22.24v22.23h22.24v258.78h29.6z"/><path class="cls-1" d="M366.504 317.916c-9.062 0-14.552 4.586-18.023 10.285v-9.157h-13.806v5.887h5.972v46.77h7.834v-30.163c0-9.863 6.726-16.494 15.79-16.494 9.28 0 14.571 6.112 14.571 15.9V371.7h7.829v-32.692c0-12.533-7.435-21.093-20.167-21.093z" id="path4386" fill="#8dc63f" stroke-width=".265"/><path class="cls-1" d="M443.805 345.843c0-15.491-8.948-27.927-24.535-27.927-14.57 0-25.267 12.224-25.267 27.517 0 16.404 11.83 27.517 26.291 27.517 9.98 0 16.389-3.969 21.696-9.89l-4.903-4.398c-4.262 4.498-9.363 7.446-16.586 7.446-9.277 0-17.431-6.427-18.545-17.833h41.756a22.96 22.96 0 00.093-2.432zm-41.852-3.373c1.022-10.285 7.938-17.926 17.11-17.926 10.492 0 15.995 8.356 16.805 17.926z" id="path4388" fill="#8dc63f" stroke-width=".265"/><path class="cls-1" d="M321.462 298.406c-2.81 0-5.067 2.172-5.067 4.853 0 2.68 2.257 4.852 5.067 4.852s5.08-2.18 5.08-4.852c0-2.673-2.257-4.853-5.08-4.853z" id="path4390" fill="#8dc63f" stroke-width=".265"/><path class="cls-1" id="polygon4392" transform="translate(-49.63 270.342) scale(.26458)" fill="#8dc63f" d="M1420.16 184.07h-51.85v22.24h22.22v176.78h29.63V206.31z"/><path class="cls-1" d="M146.032 372.929c-9.79 0-16.14-5.313-20.224-11.237v10.115h-7.853v-68.649h-5.866v-5.927h13.727v32.385c4.289-6.35 10.522-11.75 20.224-11.75 12.674 0 25.226 10.017 25.226 27.477-.008 17.365-12.465 27.586-25.234 27.586zm-1.426-48.004c-9.805 0-19.103 8.168-19.103 20.418 0 12.356 9.298 20.527 19.103 20.527 10.219 0 18.59-7.557 18.59-20.426 0-12.555-8.58-20.519-18.59-20.519z" id="path4394" fill="#8dc63f" stroke-width=".265"/><path class="cls-1" d="M203.537 317.916c-14.587 0-25.268 12.224-25.268 27.517 0 16.404 11.814 27.517 26.279 27.517 9.985 0 16.404-3.969 21.696-9.89l-4.882-4.398c-4.27 4.498-9.361 7.446-16.61 7.446-9.261 0-17.418-6.427-18.55-17.833h41.775a20.667 20.667 0 00.103-2.427c.01-15.496-8.948-27.932-24.543-27.932zm-17.336 24.554c1.03-10.285 7.957-17.939 17.124-17.939 10.496 0 15.997 8.356 16.804 17.926z" id="path4396" fill="#8dc63f" stroke-width=".265"/><path class="cls-1" d="M260.766 317.916c-14.552 0-25.251 12.224-25.251 27.517 0 16.404 11.808 27.517 26.289 27.517 9.98 0 16.404-3.969 21.695-9.89l-4.905-4.398c-4.252 4.498-9.361 7.446-16.59 7.446-9.26 0-17.414-6.427-18.536-17.833h41.754a22.96 22.96 0 00.092-2.427c.003-15.496-8.945-27.932-24.548-27.932zm-17.298 24.554c1.013-10.285 7.937-17.926 17.108-17.926 10.488 0 15.991 8.356 16.809 17.926z" id="path4398" fill="#8dc63f" stroke-width=".265"/><path class="cls-1" id="polygon4400" transform="translate(-49.63 270.342) scale(.26458)" fill="#8dc63f" d="M1336.77 102.05h-29.6v.03h-22.24v22.23h22.24v258.78h29.6z"/><path class="cls-1" d="M366.504 317.916c-9.062 0-14.552 4.586-18.023 10.285v-9.157h-13.806v5.887h5.972v46.77h7.834v-30.163c0-9.863 6.726-16.494 15.79-16.494 9.28 0 14.571 6.112 14.571 15.9V371.7h7.829v-32.692c0-12.533-7.435-21.093-20.167-21.093z" id="path4402" fill="#8dc63f" stroke-width=".265"/><path class="cls-1" d="M443.805 345.843c0-15.491-8.948-27.927-24.535-27.927-14.57 0-25.267 12.224-25.267 27.517 0 16.404 11.83 27.517 26.291 27.517 9.98 0 16.389-3.969 21.696-9.89l-4.903-4.398c-4.262 4.498-9.363 7.446-16.586 7.446-9.277 0-17.431-6.427-18.545-17.833h41.756a22.96 22.96 0 00.093-2.432zm-41.852-3.373c1.022-10.285 7.938-17.926 17.11-17.926 10.492 0 15.995 8.356 16.805 17.926z" id="path4404" fill="#8dc63f" stroke-width=".265"/><path class="cls-1" d="M321.462 298.406c-2.81 0-5.067 2.172-5.067 4.853 0 2.68 2.257 4.852 5.067 4.852s5.08-2.18 5.08-4.852c0-2.673-2.257-4.853-5.08-4.853z" id="path4406" fill="#8dc63f" stroke-width=".265"/><path class="cls-1" id="polygon4408" transform="translate(-49.63 270.342) scale(.26458)" fill="#8dc63f" d="M1420.16 184.07h-51.85v22.24h22.22v176.78h29.63V206.31z"/><path class="cls-1" d="M457.106 334.538a8.276 8.276 0 118.297-8.3 8.223 8.223 0 01-8.297 8.3zm.045-15.64a7.287 7.287 0 00-7.34 7.385c0 4.071 3.133 7.34 7.295 7.34a7.363 7.363 0 00.045-14.725zm2.034 8.369l2.151 3.156h-2.264l-1.874-2.833h-1.532v2.833h-1.944v-8.802h3.913c2.117 0 3.453 1.074 3.453 2.91a2.738 2.738 0 01-1.897 2.733zm-1.624-3.935h-1.897v2.585h1.944c.982 0 1.509-.529 1.509-1.278.008-.873-.588-1.307-1.548-1.307z" id="path4410" fill="#8dc63f" stroke-width=".265"/><path d="M34.622 280.036a36.642 36.642 0 00-11.2-7.035 37.15 37.15 0 00-13.975-2.662H-49.63v120.227c13.42-48.287 43.635-85.614 84.252-110.53zm15.61 73.729a27.781 27.781 0 00-6.062-11.483 29.506 29.506 0 00-3.553-3.374 58.314 58.314 0 00-8.411-5.556 33.462 33.462 0 0010.12-11.705c3.128-5.998 4.157-12.946 3.469-19.635a32.861 32.861 0 00-2.778-10.345 36.198 36.198 0 00-5.715-8.94c-.431-.492-.923-.926-1.381-1.392C-5.651 308.28-35.31 349.71-46.396 403.792h60.618c3.08 0 8.319-.56 11.377-1.717 5.604-2.117 10.618-5.776 14.65-10.165a44.582 44.582 0 008.075-12.526 36.616 36.616 0 003.11-14.925c.002-4.053-.4-7.612-1.197-10.692z" id="path4412" fill="#9fa1a4" stroke-width=".265"/></g></g></svg>